<?xml version="1.0" encoding="utf-8"?>
<!-- Generator: Adobe Illustrator 26.3.0, SVG Export Plug-In . SVG Version: 6.00 Build 0)  -->
<svg version="1.1" id="Layer_1" xmlns="http://www.w3.org/2000/svg" xmlns:xlink="http://www.w3.org/1999/xlink" x="0px" y="0px"
	 viewBox="0 0 500 768" style="enable-background:new 0 0 1366 768;" xml:space="preserve">
<style type="text/css">
	.st0{fill:none;}
	.st1{fill:#9D41B6;}
	.st2{fill:#FAFBFC;}
	.st3{fill:url(#SVGID_1_);}
	.st4{fill:#BAD330;}
</style>
<g>
	<g>
		<path class="st0" d="M275.26,558.62c-3.22-1.77-6.45-3.51-9.72-5.2c-0.93-0.48-1.81-0.3-2.39,0.75c-0.63,1.16,0.04,1.83,0.89,2.3
			c2.16,1.21,4.37,2.33,6.57,3.48c1.21,0.63,2.44,1.23,3.45,1.74c1.06,0.09,1.54-0.31,1.79-1.05
			C276.12,559.84,276.05,559.05,275.26,558.62z"/>
		<path class="st0" d="M305.42,566.37c-3.62-0.98-7.27-1.89-10.92-2.78c-1.09-0.27-1.51,0.53-1.75,1.43
			c-0.21,0.79-0.32,1.62,0.69,1.89c3.8,0.99,7.62,1.92,11.42,2.86c0.72,0.05,1.52,0.11,1.61-0.82
			C306.57,567.96,306.74,566.73,305.42,566.37z"/>
		<path class="st0" d="M249.68,533.21c-0.23-0.68-0.67-1.2-1.61-1.13c-1.06,0.18-1.13,0.9-0.9,1.88c0.66,2.92,2.18,5.37,4.12,7.59
			c0.58,0.67,1.35,1.17,2.25,0.53c1-0.72,0.46-1.53-0.05-2.22C251.98,537.78,250.52,535.68,249.68,533.21z"/>
		<path class="st0" d="M245.77,511.77c0.04,0,0.08-0.01,0.12-0.01c-0.23-2.21-0.45-4.42-0.68-6.62c-0.1-0.98-0.62-1.63-1.64-1.59
			c-1.18,0.05-1.06,0.96-1.23,1.84c-0.64,3.38,0.95,6.49,0.99,9.78c0.01,1.05,0.74,1.51,1.74,1.38c1.04-0.13,1.08-0.87,0.97-1.72
			C245.91,513.82,245.86,512.79,245.77,511.77z"/>
		<path class="st0" d="M245.78,473.91c-1.89-0.24-1.51,1.42-1.64,2.51c-0.27,2.19-0.36,4.42-0.76,6.58
			c-0.18,0.95-0.47,1.61,0.78,1.81c1.07,0.17,1.88-0.04,2-1.31c0.22-2.29,0.45-4.58,0.69-7.09
			C246.49,475.71,247.47,474.12,245.78,473.91z"/>
		<path class="st0" d="M337.6,576.91c-3.12-2.68-6.76-4.44-10.62-5.7c-1.57-0.51-1.95,0.87-2.44,1.99
			c-0.47,1.08-0.12,2.24,0.74,2.37c3.63,0.56,6.36,2.79,9.38,4.51c1.51,0.86,3.68-0.7,3.51-2.58
			C338.05,577.38,337.84,577.12,337.6,576.91z"/>
		<path class="st0" d="M353.73,601.21c2.08,0.01,2.81-0.34,2.56-1.34c-1.18-4.68-3.1-9.01-6.44-12.57c-1.15-1.23-2.39-0.47-3.47,0.2
			c-1.27,0.79-0.39,1.65,0.14,2.33c2.28,2.92,3.99,6.13,4.93,9.72C351.78,600.83,352.53,601.41,353.73,601.21z"/>
		<path class="st1" d="M451.71,308.92c-0.85-14.4-3.09-28.56-6.19-42.6c-3.09-13.99-7.24-27.68-12.42-41.03
			c-7.79-20.07-17.39-39.21-29.71-56.94c-8.81-12.69-18.63-24.49-30.07-34.87c-15.08-13.67-32.03-24.28-51.47-30.69
			c-5.16-1.7-10.5-2.5-15.78-3.64c-10.7-2.32-21.49-2.32-32.22-1.26c-24.4,2.42-46.55,11.35-67.22,24.32
			c-17.7,11.1-32.56,25.31-45.72,41.37c-11.62,14.18-21.15,29.73-28.61,46.48c-7.85,17.63-13.35,35.93-15.31,55.21
			c-1.81,17.88-0.47,35.47,5.36,52.51c7.5,21.9,20.9,39.55,39.65,53.07c11.94,8.61,25.4,13.29,40,14.82
			c18.91,1.98,36.7-1.38,52.94-11.51c18.47-11.53,28.24-28.17,28.68-50.06c0.29-14.43-3.61-27.93-9.31-41.02
			c-0.59-1.36-1.34-1.49-2.62-1.18c-2.03,0.49-2.12,1.96-2.04,3.58c0.29,6.27,0.01,12.5-1.22,18.67
			c-3.12,15.56-11.23,27.53-25.59,34.65c-16.92,8.39-34.02,6.81-50.66-0.7c-16.19-7.3-28.02-19.4-35.92-35.33
			c-5.85-11.8-8.49-24.35-9.15-37.41c-0.74-14.66,1.36-29.03,4.84-43.18c1.77-7.19,4.47-14.18,7.06-21.15
			c1.92-5.18,3.64-10.65,6.7-15.14c5.88-8.63,13.24-16.07,21.36-22.76c13.8-11.35,29.4-18.76,46.95-21.96
			c10.17-1.85,20.42-1.77,30.73-1.16c12.53,0.74,24.41,3.94,35.76,8.95c18.33,8.09,32.93,21.1,45.6,36.36
			c13.17,15.86,23.28,33.62,31.69,52.38c6.6,14.72,11.69,29.98,15.93,45.54c5.83,21.38,9.46,43.14,11.42,65.18
			c1.58,17.78,1.57,35.59,0.7,53.42c-0.77,15.62-2.83,31.06-6,46.32c-5.34,25.65-13.85,50.18-27.77,72.58
			c-6.11,9.85-13.53,18.64-20.95,27.58c-1.39,1.67-2.34,3.11-3.99,5.34c3.93,1.26,7.8,2.63,11.51,4.36c1.1,0.51,2.18,1.04,3.25,1.63
			c1.55,0.85,3.07,1.79,4.53,2.84c1.42-1.34,2.04-1.87,3.01-2.87c7.92-8.16,15.5-16.63,22.26-25.78
			c10.81-14.65,19.73-30.41,27.32-46.95c4.74-10.34,8.33-21.1,12.04-31.84c3.7-10.72,6.73-21.6,9.28-32.63
			c3.02-13.09,5.35-26.3,7.26-39.61c2.14-14.91,3.45-29.88,4.31-44.89C452.45,328.26,452.28,318.6,451.71,308.92z"/>
		<path class="st1" d="M300.18,582c-0.25,1.02-1.14,1.17-1.94,1.44c-16.23,5.45-32.89,7.9-50.01,8.05c-16,0.14-31.49-2.9-46.87-6.64
			c-6.66-1.62-12.89-4.78-19.16-7.58c-23.04-10.3-43.14-24.84-60.79-42.78c-11.08-11.26-20.76-23.62-28.97-37.17
			c-5.96-9.84-11.17-20.04-15.6-30.61c-5.62-13.43-9.67-27.46-12.5-41.74c-1.37-6.95-2.82-13.89-3.6-20.95
			c-0.86-7.7-2.12-15.39-2.55-23.11c-0.44-8.03-0.08-16.1-0.08-24.15c0-3.85-0.4-7.76,0.1-11.55c0.68-5.11,0.99-10.26,1.67-15.38
			c1.98-15.06,4.52-29.98,8.4-44.65c2.95-11.18,6.45-22.17,10.55-33.01c6.31-16.67,13.91-32.72,22.88-48.06
			c8.81-15.08,18.79-29.41,30.16-42.76c9.51-11.16,19.41-21.89,30.35-31.66c1.45-1.3,1.36-3.28-0.23-4.41
			c-1.77-1.26-2.86-0.1-4.01,0.74c-7.76,5.7-15.28,11.7-22.69,17.86c-18.18,15.12-34.57,31.99-49.36,50.38
			c-16.1,20.02-29.85,41.55-41.01,64.75c-9.95,20.69-17.74,42.13-23.29,64.39c-5.37,21.51-8.37,43.39-9.18,65.53
			c-0.88,23.88,0.98,47.57,5.41,71.08c5.19,27.55,14.05,53.86,27.01,78.67c9.34,17.87,20.49,34.61,34.25,49.49
			c15.06,16.28,31.85,30.24,51.78,40.34c19.05,9.65,39.03,15.81,60.34,17.1c18.41,1.12,36.55-0.79,54.4-5.8
			c23.75-6.67,45.53-17.36,65.9-31.1c3.16-2.13,6.2-4.43,9.3-6.65C317.01,592.23,309.61,586.07,300.18,582z"/>
		<path class="st2" d="M351.63,649.27c-2.29-0.19-2.21,1.05-2.34,2.59c-0.35,4-0.72,8-1.3,11.96c-0.22,1.53-0.26,2.45,1.59,2.66
			c1.62,0.18,2.83,0.2,2.98-1.94c0.3-4.17,0.74-8.33,1.15-12.72C354.14,650.29,353.71,649.44,351.63,649.27z"/>
		<path class="st2" d="M354.88,615.85c-1.89-0.18-2.09,0.78-2.16,2.27c-0.23,4.7-0.51,9.4-0.9,14.09c-0.13,1.52,0.19,2.28,1.83,2.25
			c1.41-0.03,2.77,0.16,2.73-2c-0.04-2.39,0.2-4.79,0.27-6.13c0.2-3.37,0.25-5.68,0.51-7.98
			C357.37,616.5,356.56,616.01,354.88,615.85z"/>
		<g>
			<path class="st0" d="M249.68,533.21c-0.23-0.68-0.67-1.2-1.61-1.13c-1.06,0.18-1.13,0.9-0.9,1.88c0.66,2.92,2.18,5.37,4.12,7.59
				c0.58,0.67,1.35,1.17,2.25,0.53c1-0.72,0.46-1.53-0.05-2.22C251.98,537.78,250.52,535.68,249.68,533.21z"/>
			<path class="st0" d="M275.26,558.62c-3.22-1.77-6.45-3.51-9.72-5.2c-0.93-0.48-1.81-0.3-2.39,0.75c-0.63,1.16,0.04,1.83,0.89,2.3
				c2.16,1.21,4.37,2.33,6.57,3.48c1.21,0.63,2.44,1.23,3.45,1.74c1.06,0.09,1.54-0.31,1.79-1.05
				C276.12,559.84,276.05,559.05,275.26,558.62z"/>
			<path class="st0" d="M305.42,566.37c-3.62-0.98-7.27-1.89-10.92-2.78c-1.09-0.27-1.51,0.53-1.75,1.43
				c-0.21,0.79-0.32,1.62,0.69,1.89c3.8,0.99,7.62,1.92,11.42,2.86c0.72,0.05,1.52,0.11,1.61-0.82
				C306.57,567.96,306.74,566.73,305.42,566.37z"/>
			<path class="st0" d="M245.78,473.91c-1.89-0.24-1.51,1.42-1.64,2.51c-0.27,2.19-0.36,4.42-0.76,6.58
				c-0.18,0.95-0.47,1.61,0.78,1.81c1.07,0.17,1.88-0.04,2-1.31c0.22-2.29,0.45-4.58,0.69-7.09
				C246.49,475.71,247.47,474.12,245.78,473.91z"/>
			<path class="st0" d="M245.77,511.77c0.04,0,0.08-0.01,0.12-0.01c-0.23-2.21-0.45-4.42-0.68-6.62c-0.1-0.98-0.62-1.63-1.64-1.59
				c-1.18,0.05-1.06,0.96-1.23,1.84c-0.64,3.38,0.95,6.49,0.99,9.78c0.01,1.05,0.74,1.51,1.74,1.38c1.04-0.13,1.08-0.87,0.97-1.72
				C245.91,513.82,245.86,512.79,245.77,511.77z"/>
			<path class="st0" d="M337.6,576.91c-3.12-2.68-6.76-4.44-10.62-5.7c-1.57-0.51-1.95,0.87-2.44,1.99
				c-0.47,1.08-0.12,2.24,0.74,2.37c3.63,0.56,6.36,2.79,9.38,4.51c1.51,0.86,3.68-0.7,3.51-2.58
				C338.05,577.38,337.84,577.12,337.6,576.91z"/>
			<path class="st0" d="M353.73,601.21c2.08,0.01,2.81-0.34,2.56-1.34c-1.18-4.68-3.1-9.01-6.44-12.57
				c-1.15-1.23-2.39-0.47-3.47,0.2c-1.27,0.79-0.39,1.65,0.14,2.33c2.28,2.92,3.99,6.13,4.93,9.72
				C351.78,600.83,352.53,601.41,353.73,601.21z"/>
			<path class="st0" d="M354.88,615.85c-1.89-0.18-2.09,0.78-2.16,2.27c-0.23,4.7-0.51,9.4-0.9,14.09
				c-0.13,1.52,0.19,2.28,1.83,2.25c1.41-0.03,2.77,0.16,2.73-2c-0.04-2.39,0.2-4.79,0.27-6.13c0.2-3.37,0.25-5.68,0.51-7.98
				C357.37,616.5,356.56,616.01,354.88,615.85z"/>
			<path class="st0" d="M351.63,649.27c-2.29-0.19-2.21,1.05-2.34,2.59c-0.35,4-0.72,8-1.3,11.96c-0.22,1.53-0.26,2.45,1.59,2.66
				c1.62,0.18,2.83,0.2,2.98-1.94c0.3-4.17,0.74-8.33,1.15-12.72C354.14,650.29,353.71,649.44,351.63,649.27z"/>
			<g>
				<path class="st0" d="M249.68,533.21c-0.23-0.68-0.67-1.2-1.61-1.13c-1.06,0.18-1.13,0.9-0.9,1.88c0.66,2.92,2.18,5.37,4.12,7.59
					c0.58,0.67,1.35,1.17,2.25,0.53c1-0.72,0.46-1.53-0.05-2.22C251.98,537.78,250.52,535.68,249.68,533.21z"/>
				<path class="st0" d="M305.42,566.37c-3.62-0.98-7.27-1.89-10.92-2.78c-1.09-0.27-1.51,0.53-1.75,1.43
					c-0.21,0.79-0.32,1.62,0.69,1.89c3.8,0.99,7.62,1.92,11.42,2.86c0.72,0.05,1.52,0.11,1.61-0.82
					C306.57,567.96,306.74,566.73,305.42,566.37z"/>
				<path class="st0" d="M245.78,473.91c-1.89-0.24-1.51,1.42-1.64,2.51c-0.27,2.19-0.36,4.42-0.76,6.58
					c-0.18,0.95-0.47,1.61,0.78,1.81c1.07,0.17,1.88-0.04,2-1.31c0.22-2.29,0.45-4.58,0.69-7.09
					C246.49,475.71,247.47,474.12,245.78,473.91z"/>
				<path class="st0" d="M245.77,511.77c0.04,0,0.08-0.01,0.12-0.01c-0.23-2.21-0.45-4.42-0.68-6.62c-0.1-0.98-0.62-1.63-1.64-1.59
					c-1.18,0.05-1.06,0.96-1.23,1.84c-0.64,3.38,0.95,6.49,0.99,9.78c0.01,1.05,0.74,1.51,1.74,1.38c1.04-0.13,1.08-0.87,0.97-1.72
					C245.91,513.82,245.86,512.79,245.77,511.77z"/>
				<path class="st0" d="M275.26,558.62c-3.22-1.77-6.45-3.51-9.72-5.2c-0.93-0.48-1.81-0.3-2.39,0.75
					c-0.63,1.16,0.04,1.83,0.89,2.3c2.16,1.21,4.37,2.33,6.57,3.48c1.21,0.63,2.44,1.23,3.45,1.74c1.06,0.09,1.54-0.31,1.79-1.05
					C276.12,559.84,276.05,559.05,275.26,558.62z"/>
				<path class="st0" d="M354.88,615.85c-1.89-0.18-2.09,0.78-2.16,2.27c-0.23,4.7-0.51,9.4-0.9,14.09
					c-0.13,1.52,0.19,2.28,1.83,2.25c1.41-0.03,2.77,0.16,2.73-2c-0.04-2.39,0.2-4.79,0.27-6.13c0.2-3.37,0.25-5.68,0.51-7.98
					C357.37,616.5,356.56,616.01,354.88,615.85z"/>
				<path class="st0" d="M337.6,576.91c-3.12-2.68-6.76-4.44-10.62-5.7c-1.57-0.51-1.95,0.87-2.44,1.99
					c-0.47,1.08-0.12,2.24,0.74,2.37c3.63,0.56,6.36,2.79,9.38,4.51c1.51,0.86,3.68-0.7,3.51-2.58
					C338.05,577.38,337.84,577.12,337.6,576.91z"/>
				<path class="st0" d="M351.63,649.27c-2.29-0.19-2.21,1.05-2.34,2.59c-0.35,4-0.72,8-1.3,11.96c-0.22,1.53-0.26,2.45,1.59,2.66
					c1.62,0.18,2.83,0.2,2.98-1.94c0.3-4.17,0.74-8.33,1.15-12.72C354.14,650.29,353.71,649.44,351.63,649.27z"/>
				<path class="st0" d="M353.73,601.21c2.08,0.01,2.81-0.34,2.56-1.34c-1.18-4.68-3.1-9.01-6.44-12.57
					c-1.15-1.23-2.39-0.47-3.47,0.2c-1.27,0.79-0.39,1.65,0.14,2.33c2.28,2.92,3.99,6.13,4.93,9.72
					C351.78,600.83,352.53,601.41,353.73,601.21z"/>
				<linearGradient id="SVGID_1_" gradientUnits="userSpaceOnUse" x1="315.5268" y1="415.4057" x2="312.9259" y2="484.9782">
					<stop  offset="0.2291" style="stop-color:#FFFFFF"/>
					<stop  offset="0.2572" style="stop-color:#F5F5F5"/>
					<stop  offset="0.5324" style="stop-color:#9B9B9B"/>
					<stop  offset="0.7561" style="stop-color:#595958"/>
					<stop  offset="0.9173" style="stop-color:#31312F"/>
					<stop  offset="1" style="stop-color:#21211F"/>
					<stop  offset="1" style="stop-color:#0E0E0D"/>
					<stop  offset="1" style="stop-color:#000000"/>
				</linearGradient>
				<path class="st3" d="M383.65,596.65c-2.52-12.8-6.78-24.61-16.79-33.61l-0.15-0.17c0,0-0.11-0.14-0.11-0.14
					c-0.05-0.1-0.11-0.16-0.17-0.24c-1.47-1.04-2.98-1.98-4.53-2.84c-1.06-0.58-2.15-1.12-3.25-1.63
					c-3.71-1.74-7.59-3.11-11.52-4.36c-0.34,0-0.66,0-1,0.01c-0.72-0.04-0.62,0-1.54-0.1c-9.41-1.75-18.93-1.44-28.43-1.43
					c-9.58,0.01-19.18,0.5-28.67-1.5c-16.23-3.42-27.1-12.7-32.01-28.75c-2.8-9.15-3.19-18.52-3.17-27.96
					c0.06-0.33,0.18-0.66,0.18-1c0.1-10.93,8.07-58.44,9.39-69.25c-4.91-1.03-10.12-1.35-15.03-2.51
					c-1.31,6.45-8.12,49.26-9.15,55.76c-0.87,5.47-1.5,10.97-1.39,16.53c-1.52,14.08-0.84,28.03,2.8,41.74
					c2.86,10.74,8.06,20.09,17.01,27.1c8.54,6.68,18.65,9.96,28.6,13.63c5.2,1.91,10.57,3.4,15.46,6.08
					c9.42,4.08,16.82,10.24,20.67,20.06c0.38,0.76,0.81,1.5,1.14,2.28c2.98,7.14,3.94,14.67,4.21,22.32
					c0.5,13.96-1.17,27.73-3.82,41.39c-0.4,2.09-0.03,2.78,1.73,2.76c1.65-0.02,4.11-0.11,5.75-0.11
					c14.63,0.01,29.27-0.08,43.9,0.09c2.17,0.03,2.82-0.71,3.22-2.56c3.07-14.01,5.75-28.09,6.94-42.4
					C384.73,616.1,385.57,606.4,383.65,596.65z M245.07,516.55c-1,0.12-1.73-0.33-1.74-1.38c-0.04-3.29-1.63-6.41-0.99-9.78
					c0.17-0.88,0.04-1.79,1.23-1.84c1.03-0.04,1.54,0.6,1.64,1.59c0.23,2.21,0.45,4.42,0.68,6.62c-0.04,0-0.08,0.01-0.12,0.01
					c0.09,1.02,0.14,2.05,0.27,3.06C246.15,515.68,246.11,516.42,245.07,516.55z M246.15,483.51c-0.12,1.27-0.93,1.48-2,1.31
					c-1.25-0.2-0.96-0.86-0.78-1.81c0.4-2.17,0.5-4.39,0.76-6.58c0.13-1.09-0.25-2.75,1.64-2.51c1.7,0.21,0.71,1.8,1.07,2.51
					C246.6,478.93,246.37,481.22,246.15,483.51z M253.53,542.09c-0.9,0.64-1.67,0.14-2.25-0.53c-1.94-2.21-3.45-4.66-4.12-7.59
					c-0.22-0.98-0.16-1.7,0.9-1.88c0.94-0.07,1.38,0.44,1.61,1.13c0.83,2.47,2.29,4.57,3.81,6.65
					C253.99,540.56,254.54,541.37,253.53,542.09z M275.85,560.65c-0.24,0.73-0.73,1.13-1.79,1.05c-1.01-0.51-2.24-1.11-3.45-1.74
					c-2.2-1.14-4.4-2.27-6.57-3.48c-0.85-0.48-1.52-1.14-0.89-2.3c0.57-1.05,1.46-1.23,2.39-0.75c3.27,1.68,6.5,3.43,9.72,5.2
					C276.05,559.05,276.12,559.84,275.85,560.65z M306.47,568.96c-0.09,0.93-0.89,0.87-1.61,0.82c-3.79-0.95-7.61-1.88-11.42-2.86
					c-1.02-0.26-0.9-1.1-0.69-1.89c0.24-0.9,0.66-1.69,1.75-1.43c3.65,0.88,7.3,1.79,10.92,2.78
					C306.74,566.73,306.57,567.96,306.47,568.96z M334.65,580.09c-3.02-1.72-5.76-3.95-9.38-4.51c-0.85-0.13-1.2-1.29-0.74-2.37
					c0.49-1.13,0.87-2.51,2.44-1.99c3.87,1.26,7.5,3.01,10.62,5.7c0.24,0.21,0.44,0.47,0.56,0.6
					C338.33,579.39,336.17,580.95,334.65,580.09z M346.38,587.49c1.08-0.67,2.32-1.43,3.47-0.2c3.34,3.57,5.26,7.9,6.44,12.57
					c0.25,1-0.47,1.35-2.56,1.34c-1.2,0.2-1.95-0.38-2.28-1.67c-0.94-3.59-2.65-6.79-4.93-9.72
					C345.98,589.14,345.1,588.27,346.38,587.49z M353.71,651.83c-0.41,4.38-0.85,8.54-1.15,12.72c-0.15,2.14-1.36,2.12-2.98,1.94
					c-1.85-0.21-1.81-1.12-1.59-2.66c0.57-3.97,0.94-7.97,1.3-11.96c0.14-1.54,0.06-2.78,2.34-2.59
					C353.71,649.44,354.14,650.29,353.71,651.83z M357.16,618.35c-0.26,2.29-0.31,4.61-0.51,7.98c-0.07,1.34-0.31,3.74-0.27,6.13
					c0.03,2.16-1.32,1.97-2.73,2c-1.64,0.04-1.96-0.72-1.83-2.25c0.39-4.69,0.67-9.39,0.9-14.09c0.07-1.49,0.27-2.45,2.16-2.27
					C356.56,616.01,357.37,616.5,357.16,618.35z"/>
			</g>
		</g>
	</g>
</g>
</svg>
